<?xml version="1.0" encoding="utf-8"?><svg xmlns="http://www.w3.org/2000/svg" xmlns:xlink="http://www.w3.org/1999/xlink"><symbol viewBox="0 0 451.846 451.847" id="carousel-next"><path d="M345.441 248.292L151.154 442.573c-12.359 12.365-32.397 12.365-44.75 0-12.354-12.354-12.354-32.391 0-44.744L278.318 225.92 106.409 54.017c-12.354-12.359-12.354-32.394 0-44.748 12.354-12.359 32.391-12.359 44.75 0l194.287 194.284c6.177 6.18 9.262 14.271 9.262 22.366 0 8.099-3.091 16.196-9.267 22.373z"/></symbol><symbol viewBox="0 0 451.847 451.847" id="carousel-prev"><path d="M97.141 225.92c0-8.095 3.091-16.192 9.259-22.366L300.689 9.27c12.359-12.359 32.397-12.359 44.751 0 12.354 12.354 12.354 32.388 0 44.748L173.525 225.92l171.903 171.909c12.354 12.354 12.354 32.391 0 44.744-12.354 12.365-32.386 12.365-44.745 0l-194.29-194.281c-6.167-6.177-9.252-14.274-9.252-22.372z"/></symbol><symbol viewBox="0 0 512 512" id="contacts-address"><path d="M256 0C153.755 0 70.573 83.182 70.573 185.426c0 126.888 165.939 313.167 173.004 321.035 6.636 7.391 18.222 7.378 24.846 0 7.065-7.868 173.004-194.147 173.004-321.035C441.425 83.182 358.244 0 256 0zm0 278.719c-51.442 0-93.292-41.851-93.292-93.293S204.559 92.134 256 92.134s93.291 41.851 93.291 93.293-41.85 93.292-93.291 93.292z"/></symbol><symbol viewBox="0 0 26.934 26.934" id="contacts-clock"><path d="M13.466.001C6.041.001 0 6.042 0 13.467s6.041 13.466 13.466 13.466c7.427 0 13.468-6.041 13.468-13.466S20.893.001 13.466.001zm0 25.715c-6.755 0-12.248-5.495-12.248-12.249 0-6.755 5.493-12.25 12.248-12.25s12.249 5.495 12.249 12.25-5.494 12.249-12.249 12.249z"/><path d="M9.314 4.605l-.498-.988-.545.276.501.991c.177-.1.36-.191.542-.279zM3.628 13.67c0-.206.019-.407.03-.61H2.26v1.221h1.398c-.012-.203-.03-.404-.03-.611zM14.323 3.616V2.218h-1.221v1.398c.203-.012.404-.03.611-.03.206-.001.408.018.61.03zm9.739 5.442l-.276-.544-1.103.561c.094.18.185.362.266.55l1.113-.567zm-5.009-3.932c.174.108.344.22.508.338l.612-.95-.513-.331-.607.943zM4.113 7.722l1.004.692c.107-.174.214-.347.331-.514l-.987-.682-.348.504zm13.75 15.134l.746 1.478.545-.276-.741-1.466c-.179.095-.364.18-.55.264zm3.817-3.012l1.287.888.346-.502-1.269-.875c-.114.167-.241.328-.364.489zm2.09-6.784c.013.204.031.405.031.61 0 .207-.02.408-.031.611h1.397V13.06H23.77zM13.103 23.726v1.399h1.221v-1.399c-.202.014-.404.032-.609.032-.208-.001-.409-.021-.612-.032zm-5.85-.288l.514.332.89-1.381c-.177-.103-.353-.205-.521-.318l-.883 1.367zm-3.888-4.542l.277.543 1.364-.693a9.28 9.28 0 0 1-.293-.536l-1.348.686zM14.143 4.677h-.859v9.329l-5.08 5.575.135.123 4.95-5.432h6.547v-1.203h-5.693z"/></symbol><symbol viewBox="0 0 512 512" id="contacts-email"><path d="M507.49 101.721L352.211 256 507.49 410.279c2.807-5.867 4.51-12.353 4.51-19.279V121c0-6.927-1.703-13.412-4.51-19.279zM467 76H45c-6.927 0-13.412 1.703-19.279 4.51l198.463 197.463c17.548 17.548 46.084 17.548 63.632 0L486.279 80.51C480.412 77.703 473.927 76 467 76zM4.51 101.721C1.703 107.588 0 114.073 0 121v270c0 6.927 1.703 13.413 4.51 19.279L159.789 256 4.51 101.721z"/><path d="M331 277.211l-21.973 21.973c-29.239 29.239-76.816 29.239-106.055 0L181 277.211 25.721 431.49C31.588 434.297 38.073 436 45 436h422c6.927 0 13.412-1.703 19.279-4.51L331 277.211z"/></symbol><symbol viewBox="0 0 512.001 512.001" id="contacts-tel"><path d="M498.808 377.784l-63.633-63.647c-16.978-16.978-46.641-17.007-63.647 0l-10.611 10.611 127.284 127.277 10.607-10.607c17.619-17.62 17.56-46.104 0-63.634zM339.116 345.37c-13.39 10.373-32.492 9.959-44.727-2.303L168.572 217.163c-12.263-12.263-12.676-31.379-2.303-44.736L39.278 45.443c-54.631 63.68-52.495 159.633 7.8 219.928l199.103 199.19c57.86 57.858 152.635 65.532 219.932 7.797L339.116 345.37zM197.503 76.391L133.87 12.744c-16.978-16.978-46.641-17.007-63.647 0L59.612 23.355l127.284 127.277 10.607-10.608c17.618-17.618 17.56-46.102 0-63.633z"/></symbol><symbol viewBox="0 0 139.4 44.7" id="dorohovdesign"><path d="M52.2 19.5V8.1H57c3.6 0 6.1 2.1 6.1 5.7 0 3.5-2.6 5.7-6.1 5.7h-4.8zm7.9-5.7c0-1.8-1.1-3.1-3.1-3.1h-1.9v6.2H57c2 0 3.1-1.4 3.1-3.1m4.1 0c0-3.4 2.6-5.9 6.1-5.9 3.5 0 6.1 2.4 6.1 5.9 0 3.5-2.6 5.9-6.1 5.9-3.5 0-6.1-2.4-6.1-5.9m9.2 0c0-1.9-1.2-3.3-3.1-3.3-1.9 0-3.1 1.4-3.1 3.3 0 1.8 1.2 3.3 3.1 3.3 1.9 0 3.1-1.4 3.1-3.3m11 5.7l-1.9-3.8H81v3.8h-2.9V8.1h5.7c2.5 0 3.9 1.7 3.9 3.8 0 2-1.2 3-2.3 3.4l2.3 4.2h-3.3zm.3-7.6c0-.8-.6-1.2-1.4-1.2H81v2.4h2.3c.8 0 1.4-.4 1.4-1.2m4.2 1.9c0-3.4 2.6-5.9 6.1-5.9 3.5 0 6.1 2.4 6.1 5.9 0 3.5-2.6 5.9-6.1 5.9-3.5 0-6.1-2.4-6.1-5.9m9.1 0c0-1.9-1.2-3.3-3.1-3.3-1.9 0-3.1 1.4-3.1 3.3 0 1.8 1.2 3.3 3.1 3.3 1.9 0 3.1-1.4 3.1-3.3m12.4 5.7v-4.6h-4.7v4.6h-3V8.1h3v4.3h4.7V8.1h2.9v11.4zm4.6-5.7c0-3.4 2.6-5.9 6.1-5.9 3.5 0 6.1 2.4 6.1 5.9 0 3.5-2.6 5.9-6.1 5.9-3.5 0-6.1-2.4-6.1-5.9m9.2 0c0-1.9-1.2-3.3-3.1-3.3-1.9 0-3.1 1.4-3.1 3.3 0 1.8 1.2 3.3 3.1 3.3 1.9 0 3.1-1.4 3.1-3.3m7.3 5.7l-4.3-11.4h3.3l2.8 8.2 2.8-8.2h3.3l-4.2 11.4zm-79.3 17V25.1H57c3.6 0 6.1 2.1 6.1 5.7 0 3.5-2.6 5.7-6.1 5.7h-4.8zm7.9-5.7c0-1.8-1.1-3.1-3.1-3.1h-1.9v6.2H57c2 0 3.1-1.4 3.1-3.1m4.7 5.7V25.1h8.3v2.6h-5.3v1.8H73V32h-5.2v1.9h5.3v2.6zm9.6-1.6l1.5-2.2c.8.8 2.1 1.5 3.6 1.5 1 0 1.6-.4 1.6-.9 0-1.5-6.4-.3-6.4-4.7 0-1.9 1.6-3.6 4.5-3.6 1.8 0 3.4.5 4.6 1.6l-1.6 2.1c-1-.8-2.2-1.2-3.3-1.2-.8 0-1.2.3-1.2.8 0 1.4 6.4.4 6.4 4.6 0 2.3-1.7 3.8-4.7 3.8-2.2 0-3.8-.7-5-1.8m11.5-9.8h2.9v11.3h-2.9zm4.7 5.7c0-3.6 2.8-5.9 6.1-5.9 2.5 0 4.1 1.3 4.8 2.8L99.1 29c-.4-.7-1.3-1.4-2.4-1.4-1.9 0-3.2 1.4-3.2 3.3s1.3 3.3 3.2 3.3c.8 0 1.7-.3 2.1-.7v-.9h-2.6V30h5.5v4.5c-1.2 1.3-2.9 2.2-5 2.2-3.4 0-6.1-2.3-6.1-5.9m20.9 5.7l-4.8-6.6v6.6h-2.9V25.1h3l4.6 6.3v-6.3h2.9v11.4zM17.7 0H0v44.7h17.8c15 0 24.6-8.8 24.6-22.4C42.4 8.7 32.7 0 17.7 0m-.4 35.7h-8V9.5h8c9.3 0 15.7 3.7 15.7 12.7.1 7.5-5.8 13.5-15.7 13.5"/><path d="M19.1 17H17v10.6h2c4 0 6.4-2.4 6.4-5.4 0-3.7-2.6-5.2-6.3-5.2"/></symbol><symbol viewBox="0 0 96.124 96.123" id="fb"><path d="M72.089.02L59.624 0C45.62 0 36.57 9.285 36.57 23.656v10.907H24.037a1.96 1.96 0 0 0-1.96 1.961v15.803a1.96 1.96 0 0 0 1.96 1.96H36.57v39.876a1.96 1.96 0 0 0 1.96 1.96h16.352a1.96 1.96 0 0 0 1.96-1.96V54.287h14.654a1.96 1.96 0 0 0 1.96-1.96l.006-15.803a1.963 1.963 0 0 0-1.961-1.961H56.842v-9.246c0-4.444 1.059-6.7 6.848-6.7l8.397-.003a1.96 1.96 0 0 0 1.959-1.96V1.98A1.96 1.96 0 0 0 72.089.02z"/></symbol><symbol viewBox="0 0 451 451" id="icon-search"><path d="M447.05 428l-109.6-109.6c29.4-33.8 47.2-77.9 47.2-126.1C384.65 86.2 298.35 0 192.35 0 86.25 0 .05 86.3.05 192.3s86.3 192.3 192.3 192.3c48.2 0 92.3-17.8 126.1-47.2L428.05 447c2.6 2.6 6.1 4 9.5 4s6.9-1.3 9.5-4c5.2-5.2 5.2-13.8 0-19zM26.95 192.3c0-91.2 74.2-165.3 165.3-165.3 91.2 0 165.3 74.2 165.3 165.3s-74.1 165.4-165.3 165.4c-91.1 0-165.3-74.2-165.3-165.4z"/></symbol><symbol viewBox="0 0 97.395 97.395" id="inst"><path d="M12.501 0h72.393c6.875 0 12.5 5.09 12.5 12.5v72.395c0 7.41-5.625 12.5-12.5 12.5H12.501C5.624 97.395 0 92.305 0 84.895V12.5C0 5.09 5.624 0 12.501 0zm58.447 10.821a4.395 4.395 0 0 0-4.383 4.385v10.495a4.396 4.396 0 0 0 4.383 4.385h11.008a4.398 4.398 0 0 0 4.385-4.385V15.206a4.397 4.397 0 0 0-4.385-4.385H70.948zm15.439 30.367h-8.572a28.486 28.486 0 0 1 1.25 8.355c0 16.2-13.556 29.332-30.275 29.332-16.718 0-30.272-13.132-30.272-29.332 0-2.904.438-5.708 1.25-8.355h-8.945v41.141a3.884 3.884 0 0 0 3.872 3.872h67.822a3.883 3.883 0 0 0 3.872-3.872V41.188h-.002zM48.789 29.533c-10.802 0-19.56 8.485-19.56 18.953s8.758 18.953 19.56 18.953c10.803 0 19.562-8.485 19.562-18.953s-8.758-18.953-19.562-18.953z"/></symbol><symbol viewBox="-168 186.7 161.5 128.3" id="logotip"><path d="M-65.6 193.3c-9.7-10-14.7-2.1-13.1 3.9 2.9-2.3 6-4.4 13.1-3.9zm-22 3.1c-30.2 4.8-54.2 15.1-70.9 32v-19.2c.5-5.3 2.9-9.8 8.5-12.8 3.8-2 5.4-1.6 9.5-1.8 13.5-.5 26.9-1 40.4-1.4 5.3.2 9.7 1.1 12.5 3.2zm-46.3 23.5c-12.4 7.2-34.6 23.7-34.1 39.7.3 8.1 5 14.9 12.2 19.2.1 1.3.4 2.4 1.5 4.2 1.5 2.6 3.6 4.6 6.9 5.8 3.3 1.2 5.5.9 8.9.7 12.5-.5 24.9-1.1 37.4-1.6 5.9-.3 8.1-.3 13.8-2.6 5.7-2.3 10.8-5.7 14.5-11.2 2.8-4.1 3.7-7.7 3.9-12.8v-2.1c-.2-4.3-1.4-7.2-1.8-8.1-.1-.1-.3-.6-.6-1.2-2.1-4-5.2-6.4-6.2-7.2-.9-.7-1.8-1.3-2.8-1.8-4.5-2.5-8.9-3-10.4-3.2 12.8-7.4 18.3-21 10.1-33.2-16.8 1.3-30 4.6-39.7 9.8 1.8-.1 4.3-.2 7.5-.3 3.2 0 4.6-.2 7 2.3 2.9 3.1 3.8 8.4-.6 12.4-2.3 1.6-5 2.2-7.8 2.4h-8.2c-2.7 0-4.3.2-6.8-1.3-3.2-1.7-4.6-5.2-4.7-9.9zm-23 26.6l1 29v1.5c-5.2-3.3-8.8-8.2-9.3-14-.6-6.4 2.7-12.3 8.3-16.5zm34.8 3.4h16.9c4.7 0 8.5 3.8 8.5 8.5s-3.8 8.5-8.5 8.5h-16.9c-4.7 0-8.5-3.8-8.5-8.5s3.8-8.5 8.5-8.5z"/><path d="M-31.3 189.5c-12.5-2.7-25.2-3.1-38-2.6 6.9 3.7 10.8 9.7 9.7 19.3 9.9-8 19.5-14.4 28.3-16.7zM-64.3 284.4c10.5 5.7 21.7 8.3 33.9 5.2 4.6-1.2 11.7-3 13.4-8 1.3-3.8-.3-7.7-2.4-9.9-2.7-2.9-4.9-1.8-8.4-1.5-6.1.7-13.5 2.3-19.3.1-4.2-2-6.8-4.6-8.2-7.6-1.2-2.6-2.4-5.5 1.6-5.2 8.8 1.2 17.6 2.4 26.4 3.5 4.1.5 8.2.9 11.9-.2 3-.9 4.9-2.3 6.2-4.2 4.9-7.6 2.1-21.1-2.6-28.3-10.2-15.7-32.2-21.1-48.6-12.2-5.2 2.8-10 6.9-14.2 12.4-6.3 9.1-7.9 19.4-6.4 30.5 2.9 11.7 8.5 20.1 16.7 25.4zm14.9-50.1c6.1-4.1 15.9-2.4 18.1 5.2 1.1 3.8-.3 5.9-4.2 5.6-4.2-.3-8.5-.5-12.7-.8-6.1-1.3-5.5-7-1.2-10zM-150.9 296.5c0-1.4-.9-2.3-2.3-2.3s-2.3.9-2.3 2.3v15.9c0 1.4.9 2.3 2.3 2.3s2.3-.9 2.3-2.3v-15.9zm5.6 11.4c0-1.3 1-2.4 2.3-2.4 1 0 1.8.9 1.8 2.2v4.7c0 1.4.9 2.3 2.3 2.3s2.3-.9 2.3-2.3v-4.9c0-4.4-1.7-6.6-5.2-6.6-1.4 0-2.7.5-3.8 1.4-.4-.7-1.1-1.1-2-1.1-1.4 0-2.3.9-2.3 2.3v8.9c0 1.4.9 2.3 2.3 2.3s2.3-.9 2.3-2.3v-4.5zm11.2-2.1v4.6c0 3.4 1.7 4.6 4.7 4.6.9 0 1.6-.1 2.1-.2 1-.3 1.6-1.1 1.6-2.1 0-1.3-.7-2.4-2-2.4-.2 0-.8.1-1 .1-.4 0-.6-.1-.6-.6-.1-.4-.1-.7-.1-1.5v-2.5h1.3c1.4 0 2.3-.9 2.3-2.3s-.9-2.3-2.3-2.3h-1.3v-1.3c0-1.4-.9-2.3-2.3-2.3s-2.3.9-2.3 2.3v1.3h-.1c-1.4 0-2.3.9-2.3 2.3-.1 1.4.8 2.3 2.3 2.3zm20.2 3.1c1.3 1 1.5 2.1.4 3.7-1.2 1.5-3.2 2.4-5.4 2.4-1.9 0-3.6-.7-5-2-1.4-1.4-2-3-2-5 0-1.9.7-3.6 2-5 1.4-1.4 3-2.1 5-2.1 1.8 0 3.2.5 4.5 1.5 1.2.9 1.9 2.1 1.9 3.5 0 1.3-.9 2.2-2.3 2.2h-6.3c.1 1.4.8 2.4 2.3 2.4.8 0 1.4-.3 1.8-.9.6-1.2 2-1.5 3.1-.7zm-6.9-3.4h3.3c-.3-.7-.9-1.1-1.7-1.1-.7-.1-1.2.3-1.6 1.1zm13.4 6.9V308c0-1.4 1-2.5 2.3-2.5h.6c1.4 0 2.3-.9 2.3-2.2 0-1.4-.9-2.3-2.3-2.3h-.1c-1.2 0-2.3.4-3.2 1.3-.4-.6-1.1-1-1.9-1-1.4 0-2.3.9-2.3 2.3v8.9c0 1.4.9 2.3 2.3 2.3 1.3-.1 2.3-1 2.3-2.4zm10.3-4.5c0-1.3 1-2.4 2.3-2.4 1 0 1.8.9 1.8 2.2v4.7c0 1.4.9 2.3 2.3 2.3s2.3-.9 2.3-2.3v-4.9c0-4.4-1.7-6.6-5.2-6.6-1.4 0-2.7.5-3.8 1.4-.4-.7-1.1-1.1-2-1.1-1.4 0-2.3.9-2.3 2.3v8.9c0 1.4.9 2.3 2.3 2.3s2.3-.9 2.3-2.3v-4.5zm23.7-4.4c0-1.4-.9-2.3-2.3-2.3-1 0-1.7.4-2.1 1.2-1.1-1-2.4-1.5-3.8-1.5-1.9 0-3.3.7-4.4 2.1-1.1 1.4-1.6 3.1-1.6 5s.5 3.6 1.6 5 2.5 2.1 4.4 2.1c1.5 0 2.8-.5 3.9-1.4.4.7 1.1 1.1 2 1.1 1.4 0 2.3-.9 2.3-2.3v-9zm-8.7 2.7c.9-1 2.5-1 3.4 0 .5.5.7 1.1.7 1.8s-.2 1.3-.7 1.8c-.9.9-2.5.9-3.4 0-.5-.5-.7-1.1-.7-1.8s.3-1.3.7-1.8zm11.7-.4v4.6c0 3.4 1.7 4.6 4.7 4.6.9 0 1.6-.1 2.1-.2 1-.3 1.6-1.1 1.6-2.1 0-1.3-.7-2.4-2-2.4-.2 0-.8.1-1 .1-.4 0-.6-.1-.6-.6-.1-.4-.1-.7-.1-1.5v-2.5h1.3c1.4 0 2.3-.9 2.3-2.3s-.9-2.3-2.3-2.3h-1.3v-1.3c0-1.4-.9-2.3-2.3-2.3s-2.3.9-2.3 2.3v1.3h-.1c-1.4 0-2.3.9-2.3 2.3-.1 1.4.8 2.3 2.3 2.3zm13.7-2.3c0-1.4-.9-2.3-2.3-2.3s-2.3.9-2.3 2.3v8.9c0 1.4.9 2.3 2.3 2.3s2.3-.9 2.3-2.3v-8.9zm8-2.5c-2 0-3.7.7-5.1 2.1s-2.1 3-2.1 5c0 1.9.7 3.6 2.1 5s3.1 2 5.1 2 3.7-.7 5.1-2c1.4-1.4 2.1-3 2.1-5 0-1.9-.7-3.6-2.1-5-1.4-1.4-3.1-2.1-5.1-2.1zm-1.7 5.2c.9-1 2.5-1 3.4 0 .5.5.7 1.1.7 1.8s-.2 1.3-.7 1.8c-.9.9-2.5.9-3.4 0-.5-.5-.7-1.1-.7-1.8s.2-1.3.7-1.8zm14.2 1.7c0-1.3 1-2.4 2.3-2.4 1 0 1.8.9 1.8 2.2v4.7c0 1.4.9 2.3 2.3 2.3s2.3-.9 2.3-2.3v-4.9c0-4.4-1.7-6.6-5.2-6.6-1.4 0-2.7.5-3.8 1.4-.4-.7-1.1-1.1-2-1.1-1.4 0-2.3.9-2.3 2.3v8.9c0 1.4.9 2.3 2.3 2.3s2.3-.9 2.3-2.3v-4.5zm23.8-4.4c0-1.4-.9-2.3-2.3-2.3-1 0-1.7.4-2.1 1.2-1.1-1-2.4-1.5-3.8-1.5-1.9 0-3.3.7-4.4 2.1-1.1 1.4-1.6 3.1-1.6 5s.5 3.6 1.6 5 2.5 2.1 4.4 2.1c1.5 0 2.8-.5 3.9-1.4.4.7 1.1 1.1 2 1.1 1.4 0 2.3-.9 2.3-2.3v-9zm-8.7 2.7c.9-1 2.5-1 3.4 0 .5.5.7 1.1.7 1.8s-.2 1.3-.7 1.8c-.9.9-2.5.9-3.4 0-.5-.5-.7-1.1-.7-1.8s.2-1.3.7-1.8zm9.6 6.3c0 1.4.9 2.3 2.3 2.3s2.3-.9 2.3-2.3v-12.6c0-1.4-.9-2.3-2.3-2.3s-2.3.9-2.3 2.3v12.6zm-45.1-14.3c0 1.3-1 2.3-2.3 2.3s-2.3-1-2.3-2.3c0-1.3 1-2.3 2.3-2.3s2.3 1 2.3 2.3z"/><path d="M-80.3 240.9s9.8 5.1 11.2 15.4c1.3 9.5-1.8 15.3-4.6 19.1-3.1-4.4-6.5-10.4-7.4-17.5-1.3-9.7.8-17 .8-17z"/></symbol><symbol viewBox="0 0 54 54" id="map-location"><path d="M26.7 0C16 .4 7.1 8.8 6.1 19.4c-.2 2.1-.1 4.2.3 6.2 0 0 0 .2.1.7.3 1.5.8 2.9 1.5 4.3 2.2 5.1 7.2 13.7 18.4 23 .7.6 1.7.6 2.4 0C40 44.3 45 35.7 47.2 30.6c.6-1.4 1.1-2.8 1.5-4.3.1-.4.1-.7.1-.7.3-1.3.4-2.7.4-4.1C49 9.4 39-.4 26.7 0zm.8 32.3c-5.8 0-10.5-4.7-10.5-10.5s4.7-10.5 10.5-10.5S38 16 38 21.8s-4.7 10.5-10.5 10.5z"/></symbol><symbol viewBox="0 0 371.23 371.23" id="modal-close"><path d="M371.23 21.213L350.018 0 185.615 164.402 21.213 0 0 21.213l164.402 164.402L0 350.018l21.213 21.212 164.402-164.402L350.018 371.23l21.212-21.212-164.402-164.403z"/></symbol><symbol viewBox="0 0 95.481 95.481" id="ok"><path d="M43.041 67.254c-7.402-.772-14.076-2.595-19.79-7.064-.709-.556-1.441-1.092-2.088-1.713-2.501-2.402-2.753-5.153-.774-7.988 1.693-2.426 4.535-3.075 7.489-1.682.572.27 1.117.607 1.639.969 10.649 7.317 25.278 7.519 35.967.329 1.059-.812 2.191-1.474 3.503-1.812 2.551-.655 4.93.282 6.299 2.514 1.564 2.549 1.544 5.037-.383 7.016-2.956 3.034-6.511 5.229-10.461 6.761-3.735 1.448-7.826 2.177-11.875 2.661.611.665.899.992 1.281 1.376 5.498 5.524 11.02 11.025 16.5 16.566 1.867 1.888 2.257 4.229 1.229 6.425-1.124 2.4-3.64 3.979-6.107 3.81-1.563-.108-2.782-.886-3.865-1.977-4.149-4.175-8.376-8.273-12.441-12.527-1.183-1.237-1.752-1.003-2.796.071-4.174 4.297-8.416 8.528-12.683 12.735-1.916 1.889-4.196 2.229-6.418 1.15-2.362-1.145-3.865-3.556-3.749-5.979.08-1.639.886-2.891 2.011-4.014 5.441-5.433 10.867-10.88 16.295-16.322.359-.362.694-.746 1.217-1.305z"/><path d="M47.55 48.329c-13.205-.045-24.033-10.992-23.956-24.218C23.67 10.739 34.505-.037 47.84 0c13.362.036 24.087 10.967 24.02 24.478-.068 13.199-10.971 23.897-24.31 23.851zm12.001-24.186c-.023-6.567-5.253-11.795-11.807-11.801-6.609-.007-11.886 5.316-11.835 11.943.049 6.542 5.324 11.733 11.896 11.709 6.552-.023 11.768-5.285 11.746-11.851z"/></symbol><symbol viewBox="51 -52.2 477.2 477.2" id="owl-next"><path d="M167.6 401.9c-5.3 5.3-5.3 13.8 0 19.1 2.6 2.7 6.1 4 9.5 4s6.9-1.4 9.5-4l225.1-225c5.3-5.3 5.3-13.8 0-19.1L186.6-48.2c-5.3-5.3-13.8-5.3-19.1 0s-5.3 13.8 0 19.1L383 186.4 167.6 401.9z"/></symbol><symbol viewBox="0 0 477.175 477.175" id="owl-prev"><path d="M145.188 238.575l215.5-215.5c5.3-5.3 5.3-13.8 0-19.1s-13.8-5.3-19.1 0l-225.1 225.1c-5.3 5.3-5.3 13.8 0 19.1l225.1 225c2.6 2.6 6.1 4 9.5 4s6.9-1.3 9.5-4c5.3-5.3 5.3-13.8 0-19.1l-215.4-215.5z"/></symbol><symbol viewBox="0 0 459.325 459.325" id="plus"><path d="M459.319 229.668c0 22.201-17.992 40.193-40.205 40.193H269.85v149.271c0 22.207-17.998 40.199-40.196 40.193-11.101 0-21.149-4.492-28.416-11.763-7.276-7.281-11.774-17.324-11.769-28.419l-.006-149.288H40.181c-11.094 0-21.134-4.492-28.416-11.774C4.501 250.817.006 240.769.006 229.668 0 207.471 17.992 189.475 40.202 189.475h149.267V40.202C189.469 17.998 207.471 0 229.671 0c22.192.006 40.178 17.986 40.19 40.187v149.288h149.282c22.196.012 40.165 17.996 40.176 40.193z"/></symbol><symbol viewBox="0 0 500 500" id="ruble"><path d="M382.3 43.6C355.4 16.7 318.2 0 277.4 0H128.9v355.8H74.1v48.4h54.8V500h48.4v-95.8h170v-48.4h-170v-53h100.1c40.9 0 78-16.7 104.9-43.6s43.6-64 43.6-104.9v-5.8c0-40.9-16.7-78-43.6-104.9zm-4.8 110.7c0 27.5-11.3 52.5-29.4 70.7-18.2 18.2-43.2 29.4-70.7 29.4H177.3v-206h100.1c27.5 0 52.5 11.3 70.7 29.4 18.2 18.2 29.4 43.2 29.4 70.7v5.8z"/></symbol><symbol viewBox="0 0 31.494 31.494" id="slick-left"><path d="M10.273 5.009a1.112 1.112 0 0 1 1.587 0 1.12 1.12 0 0 1 0 1.571l-8.047 8.047h26.554c.619 0 1.127.492 1.127 1.111s-.508 1.127-1.127 1.127H3.813l8.047 8.032c.429.444.429 1.159 0 1.587a1.112 1.112 0 0 1-1.587 0L.321 16.532a1.12 1.12 0 0 1 0-1.571l9.952-9.952z"/></symbol><symbol viewBox="0 0 32 23" id="slick-right"><path d="M21.221 21.808a1.112 1.112 0 0 1-1.587 0 1.12 1.12 0 0 1 0-1.571l8.047-8.047H1.127A1.118 1.118 0 0 1 0 11.079c0-.619.508-1.127 1.127-1.127h26.554L19.634 1.92c-.429-.444-.429-1.159 0-1.587a1.112 1.112 0 0 1 1.587 0l9.952 9.952a1.12 1.12 0 0 1 0 1.571l-9.952 9.952z"/></symbol><symbol viewBox="0 0 480.56 480.56" id="tel"><path d="M365.354 317.9c-15.7-15.5-35.3-15.5-50.9 0-11.9 11.8-23.8 23.6-35.5 35.6-3.2 3.3-5.9 4-9.8 1.8-7.7-4.2-15.9-7.6-23.3-12.2-34.5-21.7-63.4-49.6-89-81-12.7-15.6-24-32.3-31.9-51.1-1.6-3.8-1.3-6.3 1.8-9.4 11.9-11.5 23.5-23.3 35.2-35.1 16.3-16.4 16.3-35.6-.1-52.1-9.3-9.4-18.6-18.6-27.9-28-9.6-9.6-19.1-19.3-28.8-28.8-15.7-15.3-35.3-15.3-50.9.1-12 11.8-23.5 23.9-35.7 35.5-11.3 10.7-17 23.8-18.2 39.1-1.9 24.9 4.2 48.4 12.8 71.3 17.6 47.4 44.4 89.5 76.9 128.1 43.9 52.2 96.3 93.5 157.6 123.3 27.6 13.4 56.2 23.7 87.3 25.4 21.4 1.2 40-4.2 54.9-20.9 10.2-11.4 21.7-21.8 32.5-32.7 16-16.2 16.1-35.8.2-51.8-19-19.1-38.1-38.1-57.2-57.1zm-19.1-79.7l36.9-6.3c-5.8-33.9-21.8-64.6-46.1-89-25.7-25.7-58.2-41.9-94-46.9l-5.2 37.1c27.7 3.9 52.9 16.4 72.8 36.3 18.8 18.8 31.1 42.6 35.6 68.8zm57.7-160.4c-42.6-42.6-96.5-69.5-156-77.8l-5.2 37.1c51.4 7.2 98 30.5 134.8 67.2 34.9 34.9 57.8 79 66.1 127.5l36.9-6.3c-9.7-56.2-36.2-107.2-76.6-147.7z"/></symbol><symbol viewBox="0 0 612 612" id="tw"><path d="M612 116.258a250.714 250.714 0 0 1-72.088 19.772c25.929-15.527 45.777-40.155 55.184-69.411-24.322 14.379-51.169 24.82-79.775 30.48-22.907-24.437-55.49-39.658-91.63-39.658-69.334 0-125.551 56.217-125.551 125.513 0 9.828 1.109 19.427 3.251 28.606-104.326-5.24-196.835-55.223-258.75-131.174-10.823 18.51-16.98 40.078-16.98 63.101 0 43.559 22.181 81.993 55.835 104.479a125.556 125.556 0 0 1-56.867-15.756v1.568c0 60.806 43.291 111.554 100.693 123.104-10.517 2.83-21.607 4.398-33.08 4.398-8.107 0-15.947-.803-23.634-2.333 15.985 49.907 62.336 86.199 117.253 87.194-42.947 33.654-97.099 53.655-155.916 53.655-10.134 0-20.116-.612-29.944-1.721 55.567 35.681 121.536 56.485 192.438 56.485 230.948 0 357.188-191.291 357.188-357.188l-.421-16.253c24.666-17.593 46.005-39.697 62.794-64.861z"/></symbol><symbol viewBox="0 0 304.36 304.36" id="vk"><path d="M261.945 175.576c10.096 9.857 20.752 19.131 29.807 29.982 4 4.822 7.787 9.798 10.684 15.394 4.105 7.955.387 16.709-6.746 17.184l-44.34-.02c-11.436.949-20.559-3.655-28.23-11.474-6.139-6.253-11.824-12.908-17.727-19.372-2.42-2.642-4.953-5.128-7.979-7.093-6.053-3.929-11.307-2.726-14.766 3.587-3.523 6.421-4.322 13.531-4.668 20.687-.475 10.441-3.631 13.186-14.119 13.664-22.414 1.057-43.686-2.334-63.447-13.641-17.422-9.968-30.932-24.04-42.691-39.971-22.895-31.021-40.428-65.108-56.186-100.15C-2.01 76.458.584 72.22 9.295 72.07c14.465-.281 28.928-.261 43.41-.02 5.879.086 9.771 3.458 12.041 9.012 7.826 19.243 17.402 37.551 29.422 54.521 3.201 4.518 6.465 9.036 11.113 12.216 5.142 3.521 9.057 2.354 11.476-3.374 1.535-3.632 2.207-7.544 2.553-11.434 1.146-13.383 1.297-26.743-.713-40.079-1.234-8.323-5.922-13.711-14.227-15.286-4.238-.803-3.607-2.38-1.555-4.799 3.564-4.172 6.916-6.769 13.598-6.769h50.111c7.889 1.557 9.641 5.101 10.721 13.039l.043 55.663c-.086 3.073 1.535 12.192 7.07 14.226 4.43 1.448 7.35-2.096 10.008-4.905 11.998-12.734 20.561-27.783 28.211-43.366 3.395-6.852 6.314-13.968 9.143-21.078 2.096-5.276 5.385-7.872 11.328-7.757l48.229.043c1.43 0 2.877.021 4.262.258 8.127 1.385 10.354 4.881 7.844 12.817-3.955 12.451-11.65 22.827-19.174 33.251-8.043 11.129-16.645 21.877-24.621 33.072-7.328 10.223-6.746 15.376 2.357 24.255zm0 0" fill-rule="evenodd" clip-rule="evenodd"/></symbol></svg>