<?xml version="1.0" standalone="no"?>
<!DOCTYPE svg PUBLIC "-//W3C//DTD SVG 20010904//EN"
 "http://www.w3.org/TR/2001/REC-SVG-20010904/DTD/svg10.dtd">
<svg version="1.0" xmlns="http://www.w3.org/2000/svg"
 width="70.000000pt" height="70.000000pt" viewBox="0 0 70.000000 70.000000"
 preserveAspectRatio="xMidYMid meet">
<metadata>
Created by potrace 1.11, written by Peter Selinger 2001-2013
</metadata>
<g transform="translate(0.000000,70.000000) scale(0.100000,-0.100000)"
fill="#000000" stroke="none">
<path d="M171 592 c-5 -9 -12 -16 -15 -15 -11 4 -41 -11 -53 -26 -10 -14 -11
-13 -10 4 3 26 -35 32 -65 11 -18 -13 -19 -16 -5 -16 9 0 17 -7 17 -15 0 -8
-5 -15 -11 -15 -8 0 -8 -5 1 -15 7 -8 8 -15 4 -15 -5 0 -7 -21 -5 -46 2 -35 0
-45 -9 -39 -7 4 -4 -5 6 -21 11 -15 14 -25 8 -21 -7 4 -14 1 -16 -6 -7 -16 2
-38 11 -32 5 2 6 -7 3 -20 -2 -14 -9 -22 -14 -19 -6 4 -2 -6 8 -22 11 -15 14
-25 8 -21 -7 4 -14 1 -16 -6 -7 -17 2 -38 12 -32 5 3 5 -8 0 -25 -7 -25 -5
-32 10 -40 27 -14 41 -12 56 8 17 21 18 36 2 26 -7 -5 -8 -3 -2 7 12 19 12
149 0 142 -5 -4 -6 -1 -1 7 5 8 10 36 11 62 1 27 7 55 14 63 6 8 8 20 4 26 -4
8 -3 9 4 5 7 -4 12 -2 12 4 0 6 4 9 9 6 5 -4 11 -2 13 4 1 5 13 11 26 13 27 4
51 34 45 57 -3 10 -15 22 -29 28 -19 9 -25 8 -33 -6z"/>
<path d="M412 592 c8 -9 7 -11 -7 -6 -10 4 -21 1 -26 -7 -6 -11 -9 -11 -9 -1
0 9 -5 10 -19 3 -10 -6 -21 -7 -25 -4 -3 3 -6 1 -6 -6 0 -14 -30 -47 -39 -43
-3 1 -6 -3 -6 -8 0 -6 -7 -15 -15 -20 -8 -5 -12 -10 -7 -10 4 0 0 -11 -9 -24
-8 -14 -15 -27 -15 -30 1 -4 1 -7 0 -8 -1 -2 -2 -16 -4 -33 -1 -16 -3 -31 -5
-32 -5 -6 -3 -39 4 -55 3 -10 9 -26 13 -35 3 -10 5 -24 4 -32 -1 -7 2 -10 8
-6 6 3 11 0 11 -8 0 -18 28 -50 58 -66 12 -7 21 -15 18 -19 -3 -4 7 -9 20 -10
14 -1 34 -6 44 -12 12 -6 21 -7 25 0 3 6 15 6 29 0 13 -5 27 -6 31 -2 7 7 13
9 45 11 10 0 28 11 40 23 11 12 20 18 20 14 0 -13 49 50 59 77 8 19 7 27 -5
31 -16 6 -77 -4 -70 -11 18 -19 -101 -82 -126 -67 -4 3 -8 -1 -8 -8 0 -9 -3
-10 -8 -2 -4 6 -22 15 -40 19 -18 3 -37 15 -43 26 -5 11 -15 16 -21 13 -7 -5
-9 -1 -5 9 3 10 3 17 -2 17 -5 0 -11 9 -14 21 -4 15 1 23 21 31 36 15 53 18
47 9 -2 -4 9 -8 25 -8 16 0 27 3 26 6 -2 3 13 6 34 6 21 0 36 -3 33 -7 -2 -5
1 -8 6 -8 6 0 11 4 11 10 0 6 9 6 24 0 16 -6 27 -5 35 3 8 8 14 8 19 2 9 -13
42 -16 42 -4 0 5 6 6 13 3 22 -8 37 21 33 62 -4 41 -34 114 -48 114 -4 0 -4 7
-1 17 4 10 2 14 -4 10 -5 -3 -19 2 -29 11 -21 20 -48 33 -79 39 -10 2 -22 7
-25 11 -3 4 -24 7 -47 7 -33 0 -39 -2 -31 -13z m139 -101 c32 -32 57 -89 40
-92 -61 -8 -72 -7 -67 9 5 15 5 15 -6 1 -10 -12 -31 -15 -93 -14 -44 0 -86 4
-94 9 -10 6 -12 5 -7 -2 4 -7 2 -12 -3 -12 -17 0 -13 60 4 66 8 4 12 10 9 15
-3 5 0 9 5 9 6 0 10 5 9 12 -2 7 3 13 10 14 6 1 17 2 23 3 5 0 8 5 5 9 -2 4
12 9 32 10 20 2 38 4 39 6 12 11 64 -13 94 -43z"/>
</g>
</svg>
